<?xml version="1.0" encoding="utf-8"?>
<!-- Generator: Adobe Illustrator 13.0.0, SVG Export Plug-In . SVG Version: 6.00 Build 14948)  -->
<!DOCTYPE svg PUBLIC "-//W3C//DTD SVG 1.1//EN" "http://www.w3.org/Graphics/SVG/1.1/DTD/svg11.dtd">
<svg version="1.1" id="Layer_1" xmlns="http://www.w3.org/2000/svg" xmlns:xlink="http://www.w3.org/1999/xlink" x="0px" y="0px"
	 width="412.359px" height="202.882px" viewBox="0 0 412.359 202.882" enable-background="new 0 0 412.359 202.882"
	 xml:space="preserve">
<g id="Layer_1_1_">
	<path fill="none" stroke="#000000" d="M249.679,188.691c1.753-2.632,17.668-27.084,22.334-30.417s7.999-6,6.666-9.333
		s-55.667-35.666-70-42c-14.333-6.333-66.667-31.667-90-34.667"/>
	<path fill="none" stroke="#000000" d="M139.013,84.607c0,0,32.667,12.334,54.333,23s48,26,54,30.333s12.666,8.333,11.333,11.333
		s-13,3.666-13,3.666s-85.708-5.359-92.333,4.334c-3.479,5.09-5.667,24-5.667,24s79,1.667,82.667-1.333
		c2.654-2.173,18-27.333,18-27.333"/>
	<path fill="none" stroke="#000000" d="M86.013,165.608c0,0,34.333,13.666,40.333,14.333c0,0-1.083-35.406,5.458-38.313
		c19.563-8.688,115.542-3.688,115.542-3.688s2.834-3.999,6.5-6.833s66.667-5.667,72-2.167s4.5,5.333,4.5,5.333
		s63.833-6.333,74.833-6.333s15.834,0.166,17.667,3.333"/>
	<path fill="none" stroke="#000000" d="M126.346,179.941c0,0,20.833,5.499,21.333,1.333"/>
	<path fill="none" stroke="#000000" d="M325.513,156.941c0,0-13.666-1.167-26.5-0.5s-28.667,3.167-28.667,3.167"/>
	<path fill="none" stroke="#000000" d="M329.179,71.274c4.333-1.167,10,3.5,13.333,8.833s7.5,10.833,11,14.667
		s14.5,9.167,14.5,11.833s-13.333,3.666-13.333,3.666l-21.5-1.333c0,0-0.333,6.833-1.333,14.667s-3.5,19.833-3,22.5
		s3.666,3.833,3.666,3.833s72.334-10.836,77.334-5.669s3,24.5,3,24.5s-61.166,9.5-66,5.5s-15-24.666-15-24.666"/>
	<path fill="none" stroke="#000000" d="M340.179,109.441c0,0-0.334-7-2.167-9.833s0.166-7.666-1.5-11.333
		c0,0-2.999-13.5-7.666-15.667"/>
	<path fill="none" stroke="#000000" d="M353.679,110.108c0,0-4.834-10-7.667-15s-7.333-7.666-8.833-10.833s-1.667-6.667-4-9.167
		s-3.333-2.333-3.333-2.333"/>
	<path fill="none" stroke="#000000" d="M376.512,86.774c0-2.549,21.667-5,24.667-1.333s9.5,31.334,7.5,33.667s-10,2.333-12,0.833
		S376.512,89.108,376.512,86.774z"/>
	<path fill="none" stroke="#000000" d="M136.513,93.607c5.505,1.649,23,31.5,19.667,35.5c0,0-11.667,1.5-14,0.833
		s-36.833-34.5-35-36.333S129.488,91.503,136.513,93.607z"/>
	<path fill="none" stroke="#000000" d="M258.512,148.441l-86.5-0.333c0,0-23.667-0.666-27.667-1.5s-11.167-5.334-11.167-5.334
		s-8.333-4.166-15-6.833s-16.833-10.5-16.833-10.5"/>
	<path fill="none" stroke="#000000" d="M135.679,139.774c0,0-6.667-11-14-18.833s-25.833-29.5-25.833-29.5s-12.5-16.333-17.333-19
		s-7,0.5-7,0.5s-7.834,5.5-8.667,29.5s0.333,45,0.333,45s-22-18.166-25.333-29.166c0,0-4.167-23.334-4.833-34.167
		S32.68,65.441,35.68,60.941s29.667-0.667,29.667-0.667c3.833,0,2.833,2.5,2.833,2.5c-4.5,0.5-14.5,1.833-16.167,7.333
		s-3.5,41.333-2.5,50.5s13,18.333,13,18.333"/>
	<path fill="none" stroke="#000000" d="M75.013,71.274l14.5-2.5c0,0,7.333-1.333,17.333,1s17.667,2.333,29,11.667
		s38.333,55,38.333,55"/>
	<path fill="none" stroke="#000000" d="M127.846,74.274c0,0,2.167-5.667,4.333-6.667"/>
	<path fill="none" stroke="#000000" d="M341.679,185.691c0,0-17.667-25.749-18-35.083s5-34.333,5-44.667c0-10.333-0.334-34-2-38.333
		"/>
	<path fill="none" stroke="#000000" d="M326.679,67.607L326.679,67.607"/>
	<path fill="none" stroke="#000000" stroke-width="2" d="M14.346,127.106c-5.833-60.166,1.5-72.5,7-76.167
		s12.833-3.333,12.833-3.333l16.333-0.167c0,0,0.167-0.833,5.333-3.667s12.333-3.833,16.5-2.167s3.667,11.167,3.667,11.167
		l3.833-0.5c0,0,13.167-28.333,36.333-37.667s85.167-9,99.833-8.667c14.667,0.333,36.5,1.5,55.667,9.167
		s46.833,46.833,46.833,46.833s5.167,2.501,8.167,5.668l1.667,3.332c8.667-8.667,28.333-10,28.333-10s7.667-7.667,8.833-10.167
		s-1.5-13.333,1.334-14.667c8.163-3.841,27,3,28.5,5.167s1,6.333-0.667,8.333s-16.167,2.667-20.167,3.333s-6,7.833-6,7.833
		c1.918,0.421,14.334,0.669,23.667,6.002s18,25.5,18,25.5s11.333,30.5,12.333,35.5s1.667,32.334,1.667,32.334
		s3.667,4.666,4.333,7.666s-2.166,13.167-5.333,15.334s-12.5,2.5-12.5,2.5s-46.461,10.334-61.25,6.083c-2.354-0.677-7.75-6-7.75-6
		s-3.75-0.75-7.25-0.5s-80.25,3-80.25,3s-3.75-0.25-4.75,1.25"/>
	<path fill="none" stroke="#000000" stroke-width="2" d="M14.346,126.605c0,0-1.166-60,1.667-59.833s5.333,33.833,5.5,39.5
		s1.833,40.833,1.333,43.833l44.833,26.334l6.5-0.164"/>
	<path fill="none" stroke="#000000" stroke-width="2" d="M249.429,189.441c0,0-2.75,4.998-5.25,6.331s-74.167,6.333-109.167,2
		s-45.667-10.166-46.833-11.833s-3.833-51.666-4.5-58.5s-3.167-44.334-10.667-44s-9,38.667-8.333,51.667s2.5,36,3.5,42"/>
	<path fill="none" stroke="#000000" d="M318.512,61.939c-7.167,2.498-78.083,2.502-87.083,2.502s-76.25,3.5-87.25,3.75
		s-37.25-2.25-37.25-2.25s7-33,20-43.5s35.25-10.25,54.25-11.75s49-1.25,62.5,0s29,4.25,35.5,8.25"/>
	<path fill="none" stroke="#000000" d="M166.429,124.191c1.75-4-1-8.25-1-8.25l39.5-2.25"/>
	<path fill="none" stroke="#000000" d="M170.679,115.941c0,0-2.5-2-4-5.25s-1.5-6-4.5-10.25s-8.25-5.5-10.75-6.75
		s-8.75-4.5-8.75-4.5"/>
	<path fill="none" stroke="#000000" d="M141.429,128.941c0,0-3.25,3-5.5,3s-5.5-1.75-5.5-4.25s5-3,5-3"/>
	<path fill="none" stroke="#000000" d="M408.679,119.108c0,0,4,2.833,6,2.083s1.5-2.25,0.5-4s-6.25-2.5-6.25-2.5"/>
	<path fill="none" stroke="#000000" d="M368.012,106.608c0,0,21.167,16.583,23.167,18.333c2.192,1.92-14-23.75-19-31.5
		s-12.25-18.75-18-23.5s-12.75-5.5-12.75-5.5"/>
	<line fill="none" stroke="#000000" x1="251.929" y1="185.941" x2="338.929" y2="181.941"/>
	<line fill="none" stroke="#000000" x1="253.929" y1="182.441" x2="336.929" y2="178.191"/>
	<path fill="none" stroke="#000000" d="M248.429,191.441c0,0-92.732,1.162-104,0.75c-20.5-0.75-57.5-15-57.5-15"/>
	<path fill="none" stroke="#000000" d="M342.679,186.441c0,0,66.661-5.121,73.25-6.5c10.75-2.25,11.25-4.25,11.25-4.25"/>
	<path fill="none" stroke="#000000" d="M428.512,167.774c0,0-0.151,2.961-2.833,4.417c-8.75,4.75-68.5,9-68.5,9s-10.5,0.5-14.25-0.5
		s-6.75-4-6.75-4"/>
	<path fill="none" stroke="#000000" d="M424.179,160.108c0,0,1.333,5.999-1.5,8.166s-9.833,0.498-9.833,0.498"/>
	<ellipse fill="none" stroke="#000000" cx="130.429" cy="106.316" rx="7.75" ry="8.125"/>
	<ellipse fill="none" stroke="#000000" cx="116.179" cy="100.066" rx="2.5" ry="2.625"/>
	<ellipse fill="none" stroke="#000000" cx="389.554" cy="96.941" rx="6.875" ry="7.5"/>
	<ellipse fill="none" stroke="#000000" cx="398.179" cy="90.816" rx="1.75" ry="2.125"/>
	<path fill="none" stroke="#000000" d="M61.513,172.275c0,0-2-17.834-1.333-26.834"/>
	<path fill="none" stroke="#000000" stroke-width="2" d="M79.179,93.441c0,0,0.167-0.166-2.5,0.167s-4.754,18.33-4.833,35.833
		c-0.167,36.334,4,71.667,9,72.167c0,0,42.167,1.833,44.5,0.333c0,0,3.667-0.332,4.667-4.666"/>
	<path fill="none" stroke="#000000" stroke-width="2" d="M79.679,201.441c0,0,7-0.834,6.167-38.5"/>
	<path fill="none" stroke="#000000" d="M72.846,110.941c0,0,0.167-9.667,3-9.667s4.167,34.833,4.333,46.333s0,44.5-2.333,44.5
		s-3.167-10.833-3.167-10.833"/>
	<path fill="none" stroke="#000000" d="M22.846,141.608c0,0,16.833,8.333,22.5,12.333s21.5,14.334,21.5,14.334l6-0.334"/>
	<path fill="none" stroke="#000000" d="M27.179,143.608c0,0,3-11.666,4.5-11.333s7.667,5.667,9.667,8.5s4,13.166,4,13.166"/>
	<path fill="none" stroke="#000000" d="M49.513,111.608c0,0-12.167-0.667-13.5-2.667"/>
	<polygon fill="none" stroke="#000000" points="291.179,133.941 293.929,139.941 300.179,139.191 297.179,133.441 	"/>
	<path fill="none" stroke="#000000" d="M50.429,48.191c0,0-4.75,5.75,0,8.75s20.964,4.036,24.5,0.5c1.25-1.25,0.5-4.5,0.5-4.5"/>
	<path fill="none" stroke="#000000" d="M88.929,69.191c0,0-11.25-9.25-14-11.75"/>
	<path fill="none" stroke="#000000" d="M66.679,59.941c0,0,7.75,6.25,9.25,11.25"/>
	<path fill="none" stroke="#000000" d="M74.929,70.191c0,0,3-1.5,12.25-2.75"/>
	<path fill="none" stroke="#000000" d="M65.929,83.191c0,0-9.557-3.612-13-10.5c-1.5-3,1.25-5.25,1.25-5.25"/>
	<path fill="none" stroke="#000000" d="M33.429,85.941c0,0-10.5-2.5-14-5"/>
	<path fill="none" stroke="#000000" d="M36.429,59.941c0,0-7-9.25-11-10.75"/>
	<path fill="none" stroke="#000000" stroke-width="2" d="M46.179,163.941c0,0-19,2-25-0.5s-7.5-28.25-7-37.75"/>
	<path fill="none" stroke="#000000" d="M25.929,152.441c0,0-0.25,9-4.75,11"/>
	<path fill="none" stroke="#000000" d="M367.804,61.066c0,0-7.127-1.006-11.126-0.128"/>
	<path fill="none" stroke="#000000" d="M360.179,57.816c0,0,9.375-0.875,9.875,0.125"/>
	<path fill="none" stroke="#000000" d="M79.845,52.272c0,0-0.666,4.169,3.834,8.419s25.5,8,46.75,8.75"/>
	<path fill="none" stroke="#000000" d="M116.178,14.605c0,0,5.751,1.836,8.251,5.586c0,0-12.25,12.75-20.5,45.5
		c0,0-24.75-3-21.25-13.5s9-18.25,9-18.25"/>
	<path fill="none" stroke="#000000" d="M119.179,18.941c0,0,1.75,0,2,2.5c0,0-12.75,17-18.5,41.5l-10.75-3.25
		C91.929,59.691,103.679,33.691,119.179,18.941z"/>
	<path fill="none" stroke="#000000" d="M117.179,18.191c0,0-16,15.25-27.5,39.5c0,0-3.25-1.75-3.25-8c0,0,5.5-14.75,18.75-26.75
		C105.179,22.941,111.679,16.691,117.179,18.191z"/>
</g>
</svg>
