<?xml version="1.0" encoding="utf-8"?>
<!-- Generator: Adobe Illustrator 13.0.0, SVG Export Plug-In . SVG Version: 6.00 Build 14948)  -->
<!DOCTYPE svg PUBLIC "-//W3C//DTD SVG 1.1//EN" "http://www.w3.org/Graphics/SVG/1.1/DTD/svg11.dtd">
<svg version="1.1" xmlns="http://www.w3.org/2000/svg" xmlns:xlink="http://www.w3.org/1999/xlink" x="0px" y="0px"
	 width="412.359px" height="202.882px" viewBox="0 0 412.359 202.882" enable-background="new 0 0 412.359 202.882"
	 xml:space="preserve">
<g id="Layer_3">
	<path fill="none" stroke="#000000" stroke-width="2" d="M272.904,63.706c0.433,18.001-3.56,38.154-9.83,43.63
		c-6.271,5.477-24.713,12.242-33.467,13.209s-36.677,2.779-46.915-0.51"/>
	<path fill="none" stroke="#000000" d="M264.74,62.707c0,0-0.753,23.132-4.797,34.951c-4.044,11.819-1.368,9.329-5.711,11.979
		c-4.344,2.65-24.625,10.908-24.625,10.908"/>
	<line fill="none" stroke="#000000" x1="217.154" y1="85.83" x2="267.435" y2="99.686"/>
	<polyline fill="none" stroke="#000000" points="255.903,108.476 231.218,113.382 242.629,92.426 	"/>
	<path fill="none" stroke="#000000" d="M184.874,116.042c0,0,44.156,2.832,70.027-7.07"/>
	<path fill="#FFFFFF" stroke="#000000" d="M240.699,96.085c0,0,1.454,12.256,0.692,15.502"/>
	<polyline fill="#FFFFFF" stroke="#000000" points="251.202,95.375 250.185,99.621 241.437,99.088 	"/>
	<polyline fill="none" stroke="#000000" points="241.654,108.089 248.158,107.113 248.685,99.865 	"/>
	<path fill="none" stroke="#000000" d="M186.881,114.134c5.501-0.23,12.679-3.037,12.679-3.037s-44.862-14.833-57.606-16.381
		s-61.749-0.48-68.001,0.246s-40.255,1.35-40.255,1.35"/>
	<path fill="none" stroke="#000000" d="M186.889,111.884c1.243,1.754-5.533,8.979-8.298,12.719
		c-2.764,3.74-10.029,7.963-10.777,7.211c-0.747-0.754,3.049-12.99,4.301-13.734c1.253-0.746,3.502-0.488,5.007-1.732
		s4.018-4.734,5.52-5.229S186.889,111.884,186.889,111.884z"/>
	<path fill="none" stroke="#000000" d="M214.304,67.736c0,0-0.584,22.498-7.382,35.222"/>
	<path fill="none" stroke="#000000" d="M158.575,62.067c0,0,0.413,23.462-2.881,35.2"/>
	<path fill="none" stroke="#000000" d="M93.484,86.535c0,0-22.856,28.414-24.86,29.408c-2.003,0.992-28.174-0.125-30.49-2.615
		c-3.735-4.014-5.155-25.519-5.155-25.519S87.482,87.013,93.484,86.535s36.753-0.863,36.753-0.863l0.468,8.502"/>
	<path fill="none" stroke="#000000" d="M121.943,97.392l-0.81,15.997c0,0-18.495-1.568-24.986-3.844"/>
	<path fill="none" stroke="#000000" d="M194.134,113.412c0,0-37.45-13.39-49.195-14.684c-11.745-1.294-32.24-2.621-40.244-1.65
		c-8.003,0.97-20.755,1.422-20.755,1.422"/>
	<path fill="none" stroke="#000000" d="M169.862,119.32c0,0-75.013,3.221-82.265,3.943"/>
	<path fill="none" stroke="#000000" d="M104.694,97.077c0,0-0.501,0.248-2.006,1.742s-8.301,13.719-8.301,13.719"/>
	<path fill="none" stroke="#000000" d="M114.958,93.365l0.484,4.252l-1.057,15.246c-9.753,0.713-40.992-2.152-40.992-2.152"/>
	<path fill="none" stroke="#000000" d="M112.103,121.605c0.011-3,2.283-8.742,2.283-8.742"/>
	<path fill="none" stroke="#000000" d="M176.121,116.843c0,0-52.752,0.553-64.751,0.258s-36.501,0.365-48.751,0.318
		c-12.25-0.045-52.984-4.447-52.984-4.447s-5.257,1.98-5.265,3.98c-0.008,2,0.991,2.502,0.991,2.502"/>
	<path fill="none" stroke="#000000" d="M3.969,90.45c0,0,0.989,3.004,2.49,2.759c1.5-0.244,3.176,19.763,3.176,19.763"/>
	<path fill="none" stroke="#000000" d="M-2.275,88.677c0,0-0.753,0.997-0.762,3.247c-0.008,2.25,7.66,24.029,7.66,24.029"/>
	<path fill="none" stroke="#000000" d="M84.902,108.335c-2.334-0.008-3.827-1.68-3.989-2.848s2.176-2.826,3.676-2.82
		s4.331,0.85,4.156,3.016C88.57,107.849,87.235,108.345,84.902,108.335z"/>
	<path fill="none" stroke="#000000" d="M69.378,114.779c0,0,106.499,0.398,108.999,0.406"/>
	<line fill="none" stroke="#000000" x1="121.054" y1="112.304" x2="179.884" y2="113.359"/>
	<path fill="none" stroke="#000000" d="M177.738,107.683c0,0-0.02,5.166-1.688,5.66"/>
	<path fill="none" stroke="#000000" d="M175.745,117.218c0,0,1.248,0.379,2.124,0.133c0.876-0.248,4.398-6.359,4.398-6.359"/>
	<polyline fill="none" stroke="#000000" points="82.657,84.494 66.48,87.267 66.154,85.266 	"/>
	<path fill="none" stroke="#000000" d="M49.484,86.037l-16.506,1.771c0,0-22.259,2.417-29.01,2.642s-8.735-4.033-8.735-4.033
		l-2-0.007"/>
	<path fill="none" stroke="#000000" d="M-4.767,86.417c0,0-0.438-16.501-0.669-21.502"/>
	<line fill="none" stroke="#000000" x1="-2.249" y1="81.677" x2="-5.249" y2="81.666"/>
	<line fill="none" stroke="#000000" x1="-5.205" y1="69.916" x2="-8.205" y2="69.904"/>
	<line fill="none" stroke="#000000" x1="-4.968" y1="73.417" x2="-8.217" y2="73.154"/>
	<path fill="none" stroke="#000000" d="M262.941,98.169c0,0-2.361,7.741-8.709,11.467s-21.121,9.92-21.121,9.92"/>
	<path fill="none" stroke="#000000" stroke-width="2" d="M182.609,8.498c10.262-3.109,38.172-1.149,46.918-0.148
		s27.138,7.688,33.368,13.036c6.229,5.348,10.573,24.892,10.009,42.32"/>
	<path fill="none" stroke="#000000" d="M264.74,62.707c0,0-1.09-20.5-5.047-31.973c-3.957-11.474-1.299-9.044-5.623-11.641
		c-4.323-2.597-24.543-10.743-24.543-10.743"/>
	<line fill="none" stroke="#000000" x1="216.818" y1="41.871" x2="267.201" y2="28.825"/>
	<polyline fill="none" stroke="#000000" points="255.733,20.229 231.085,15.295 242.342,35.671 	"/>
	<path fill="none" stroke="#000000" d="M184.761,12.378c0,0,44.176-2.417,69.973,7.362"/>
	<path fill="#FFFFFF" stroke="#000000" d="M240.438,32.114c0,0,1.544-11.857,0.806-15.006"/>
	<polyline fill="#FFFFFF" stroke="#000000" points="250.935,32.879 249.951,28.76 241.199,29.212 	"/>
	<polyline fill="none" stroke="#000000" points="241.481,20.498 247.978,21.491 248.452,28.512 	"/>
	<path fill="none" stroke="#000000" d="M189.114,7.392c0,0,7.335-0.457,9.492,1.972c2.158,2.429,0.804,7.911,0.804,7.911
		c9.058,8.602,14.872,18.104,17.488,25.403c3.692,10.299,3.492,24.165,3.492,24.165s0.62,7.547-3.15,18.154
		c-2.672,7.518-8.559,17.288-17.681,26.1c0,0,1.313,5.672-0.864,8.164c-2.176,2.492-9.507,1.965-9.507,1.965"/>
	<path fill="none" stroke="#000000" d="M186.755,14.241c5.499,0.263,12.655,3.034,12.655,3.034s-44.969,14.033-57.725,15.438
		c-12.755,1.405-61.75,0.011-67.998-0.739c-6.247-0.749-40.244-1.603-40.244-1.603"/>
	<path fill="none" stroke="#000000" d="M186.747,16.42c1.256-1.689-5.468-8.735-8.204-12.376s-9.971-7.783-10.724-7.061
		c-0.753,0.723,2.953,12.599,4.2,13.331c1.247,0.73,3.498,0.496,4.993,1.713c1.496,1.216,3.983,4.614,5.481,5.104
		C183.992,17.621,186.747,16.42,186.747,16.42z"/>
	<path fill="none" stroke="#000000" d="M214.304,67.736c0,0-0.887-30.156-7.591-42.527"/>
	<path fill="none" stroke="#000000" d="M158.575,62.067c0,0,0.076-20.334-3.131-31.723"/>
	<path fill="none" stroke="#000000" stroke-width="2" d="M170.776,8.614c0,0-8.998-0.518-16.247-1.029
		c-7.248-0.512-54.48-5.288-58.48-5.303c-4-0.015-8.509,2.39-8.509,2.39S74.047,2.684,69.049,2.181
		c-4.999-0.503-39.996-1.117-44.25-0.166C20.546,2.968,6.031,6.787,3.773,8.958c-2.258,2.17-1.013,3.386-1.013,3.386
		s-2.003,0.718-3.007,1.924c-1.004,1.208-5.309,15.717-6.33,21.279c-1.021,5.564-2.17,21.061-2.105,28.105
		c0.063,6.779,1.42,21.256,2.399,27.01c0.979,5.753,5.172,20.769,6.167,22.023c0.996,1.254,2.993,2.012,2.993,2.012
		s-1.255,1.244,0.987,3.504c2.242,2.258,16.727,6.313,20.973,7.328c4.247,1.016,39.248,0.646,44.25,0.164
		c5.001-0.48,18.509-2.43,18.509-2.43s4.49,2.518,8.49,2.531c4,0.016,51.268-4.559,58.52-5.031
		c7.251-0.473,16.253-0.939,16.253-0.939"/>
	<polyline fill="none" stroke="#000000" points="108.405,40.819 108.314,65.09 108.736,86.092 	"/>
	<path fill="none" stroke="#000000" d="M94.656,40.283c0,0-1.285,9.468-1.589,23.75c-0.313,14.749,1.916,22.507,1.916,22.507"/>
	<path fill="none" stroke="#000000" d="M93.899,42.218l-11.241-2.463c-1.524,6.53-1.087,23.235-1.087,23.235
		s-0.064,17.25,1.41,24.005l11.259-2.458"/>
	<path fill="none" stroke="#000000" d="M93.156,40.277c0,0-22.646-27.681-24.643-28.657c-1.996-0.976-28.174-0.086-30.509,2.307
		C34.24,17.786,32.662,38.6,32.662,38.6S87.158,39.771,93.156,40.277c5.998,0.507,36.746,1.106,36.746,1.106l0.531-8.229"/>
	<path fill="none" stroke="#000000" d="M121.695,29.976l-0.692-15.496c0,0-18.505,1.383-25.013,3.537"/>
	<path fill="none" stroke="#000000" d="M194.002,14.994c0,0-37.548,12.69-49.302,13.857s-32.259,2.3-40.255,1.302
		C96.448,29.155,83.7,28.623,83.7,28.623"/>
	<path fill="none" stroke="#000000" d="M169.774,9.095c0,0-74.987-3.67-82.234-4.423"/>
	<path fill="none" stroke="#000000" d="M104.445,30.153c0,0-0.499-0.244-1.994-1.703c-1.495-1.458-8.2-13.345-8.2-13.345"/>
	<path fill="none" stroke="#000000" d="M114.681,33.823l0.515-4.113l-0.944-14.771c-9.748-0.762-41.007,1.784-41.007,1.784"/>
	<path fill="none" stroke="#000000" d="M112.033,6.457c-0.011,2.905,2.219,8.481,2.219,8.481"/>
	<path fill="none" stroke="#000000" d="M176.014,11.538c0,0-52.747-0.924-64.748-0.727s-36.498-0.621-48.748-0.667
		c-12.25-0.046-53.015,3.918-53.015,3.918s-5.243-1.956-5.236-3.894c0.007-1.936,1.009-2.416,1.009-2.416"/>
	<path fill="none" stroke="#000000" d="M3.673,35.828c0,0,1.011-2.901,2.51-2.653c1.499,0.248,3.322-19.112,3.322-19.112"/>
	<path fill="none" stroke="#000000" d="M-2.584,37.5c0,0-0.747-0.972-0.738-3.15s7.837-23.21,7.837-23.21"/>
	<path fill="none" stroke="#000000" d="M84.736,19.104c-2.334-0.009-3.839,1.601-4.01,2.73c-0.171,1.128,2.156,2.752,3.656,2.758
		c1.5,0.005,4.337-0.792,4.178-2.891C88.4,19.603,87.069,19.113,84.736,19.104z"/>
	<path fill="none" stroke="#000000" d="M69.26,12.752c0,0,106.499,0.398,108.999,0.407"/>
	<line fill="none" stroke="#000000" x1="120.916" y1="15.529" x2="179.752" y2="14.941"/>
	<path fill="none" stroke="#000000" d="M177.564,20.42c0,0,0.019-5.003-1.646-5.494"/>
	<path fill="none" stroke="#000000" d="M175.641,11.173c0,0,1.251-0.358,2.125-0.113c0.874,0.245,4.352,6.19,4.352,6.19"/>
	<polyline fill="none" stroke="#000000" points="82.315,42.174 66.159,39.37 65.819,41.306 	"/>
	<path fill="none" stroke="#000000" d="M49.155,40.437L32.662,38.6c0,0-22.241-2.505-28.99-2.772
		c-6.749-0.268-8.765,3.841-8.765,3.841l-2-0.008"/>
	<path fill="none" stroke="#000000" d="M32.662,38.6c-0.845,5.27-1.264,25.869-1.264,25.869s0.775,17.889,1.58,23.34"/>
	<path fill="none" stroke="#000000" d="M48.066,64.198c0,0,0.581-21.181,1.428-25.052l16.325,2.16
		c-0.683,4.193-1.417,22.62-1.417,22.62s1.102,17.004,1.753,21.34l-16.341,2.105C48.995,83.368,48.066,64.198,48.066,64.198z"/>
	<polyline fill="none" stroke="#000000" points="10.171,36.336 9.061,65.385 10.47,89.975 	"/>
	<path fill="none" stroke="#000000" d="M6.173,35.837c0,0-1.333,22.361-1.112,29.867c0.229,7.75,1.408,24.755,1.408,24.755"/>
	<path fill="none" stroke="#000000" d="M3.673,35.828c0,0-1.333,22.354-1.361,29.616c-0.028,7.5,1.657,25.006,1.657,25.006"/>
	<path fill="none" stroke="#000000" d="M-1.579,36.292c0,0-1.066,17.732-1.106,28.383c-0.041,11,1.406,25.256,1.406,25.256"/>
	<path fill="none" stroke="#000000" d="M-5.092,39.669c0,0-0.076,20.406-0.344,25.246"/>
	<line fill="none" stroke="#000000" x1="-2.609" y1="44.277" x2="-5.609" y2="44.266"/>
	<line fill="none" stroke="#000000" x1="-5.652" y1="55.645" x2="-8.652" y2="55.633"/>
	<line fill="none" stroke="#000000" x1="-5.389" y1="52.256" x2="-8.64" y2="52.486"/>
	<path fill="none" stroke="#000000" d="M262.695,30.261c0,0-2.305-7.514-8.625-11.168c-6.319-3.655-21.047-9.761-21.047-9.761"/>
	<path fill="none" stroke="#000000" d="M262.693,64.167c0,0-0.747,2.709-3.257,1.863c-1.123-0.379-0.61-3.752,0.015-4
		C260.596,61.578,262.693,64.167,262.693,64.167z"/>
</g>
<g id="coll">
	<polygon fill="none" stroke="#000000" points="273.855,62.859 269.153,113.97 218.738,124.308 26.241,128.099 -8.086,58.797 
		25.97,-0.474 219.939,4.011 266.503,18.47 	"/>
</g>
</svg>
