<?xml version="1.0" encoding="utf-8"?>
<!-- Generator: Adobe Illustrator 13.0.0, SVG Export Plug-In . SVG Version: 6.00 Build 14948)  -->
<!DOCTYPE svg PUBLIC "-//W3C//DTD SVG 1.1//EN" "http://www.w3.org/Graphics/SVG/1.1/DTD/svg11.dtd">
<svg version="1.1" id="Layer_1" xmlns="http://www.w3.org/2000/svg" xmlns:xlink="http://www.w3.org/1999/xlink" x="0px" y="0px"
	 width="412.359px" height="202.882px" viewBox="0 0 412.359 202.882" enable-background="new 0 0 412.359 202.882"
	 xml:space="preserve">
<path fill="none" stroke="#000000" stroke-width="2" d="M267.346,142.608c0,0,6.334-29.333,2.334-44s-9-26-24.668-24.667
	c-15.666,1.333-26,14.333-30,27s-3.332,25.334-5.332,34.334s-4.667,13-4.667,13l-60.333,0.333c0,0-79.667-5.334-93.667-6.667
	s-29.333-2-33.333-4.333s-3.667-3.001-3-5.667s6-3.333,6-3.333s-7-19.667-6-23.667s19.334-23.667,26.334-28.667
	s21-12.667,27.667-15.333s33.667-7.667,37.667-8.667s7.333-3.333,7.333-3.333s-1-0.333,0-3s2.333-4.667,6.333-4.667s8.667,0,8.667,0
	s42.333-19.333,56.667-22.333s36-5.333,49-6s56.666-1,80.332,1.333s63.999,9.667,83.333,14.333s46.334,12.333,56.334,16
	s10.333,8.333,12,11.333s2.666,18.333,0.333,28s-10,24.667-10,24.667s4.666-20.667,2-32s-10.667-17-17-15.667s-14,3.666-21,23
	s-2.999,21.334-4.666,29.334s-3.667,13-3.667,13l-11,1.333L267.346,142.608z"/>
<path fill="none" stroke="#000000" d="M184.345,18.608c60.667-4.667,93.333,3.667,93.333,3.667c-12.666,8-34.666,36-34.666,36
	s-32-3.667-65-2c-33,1.667-59-2-65.667-1.333s-8.333-2.333-8.333-2.333"/>
<path fill="none" stroke="#000000" d="M251.512,59.608c0,0,20.499-28.667,33.166-35.667c12.668-7,33.002-6.333,40.334-5.667
	c7.334,0.666,31.333,6,31.333,6l19.333,19.667l25.667-3.333c0,0-42.333-19.667-45.333-19.667s-3,0-3,0"/>
<path fill="none" stroke="#000000" d="M367.012,45.608c0,0-19.668-22-26.334-23.667s-11.666-2-11.666-2s21.666,22.334,22.333,27.667
	"/>
<path fill="none" stroke="#000000" d="M357.678,46.608c0,0,8.668,9,8.334,18.667s-6,35.333-6,35.333l-4.332,5.583"/>
<path fill="none" stroke="#000000" d="M251.512,59.608c0,0,13.5,14.667,16.834,19c3.332,4.333,6.332,12.334,7.332,21.667
	s-0.332,20.333-0.332,20.333"/>
<path fill="none" stroke="#000000" d="M133.345,97.608c0,0-88.333,0-100.333-5"/>
<path fill="none" stroke="#000000" d="M178.012,56.274c-17,9-47.667,45.333-47.667,45.333s28.667-1.666,38.667-2.333
	s37-4.333,48.667-5.667"/>
<path fill="none" stroke="#000000" d="M207.012,133.608c0,0-44,6.333-62.333,8.333s-52.667,0.334-60-1.333"/>
<path fill="none" stroke="#000000" d="M114.012,54.941c-39,9.667-86.667,41-86.667,41l-4.667-2.667"/>
<path fill="none" stroke="#000000" d="M67.012,73.608c0,0-6.666-4.667-11.333-5.667"/>
<ellipse fill="none" stroke="#000000" cx="154.804" cy="91.628" rx="3.375" ry="4.313"/>
<path fill="none" stroke="#000000" d="M178.054,85.191c0,0-0.875-4.125-4.25-3.875s-4,3.375-4,5.375s0.75,3.125,0.75,3.125"/>
<path fill="none" stroke="#000000" d="M152.679,139.775c0,0-5.5-16.833-15.833-26c0,0-40.166,2.334-46.333,2s-48.333-3.333-50-3.5
	s-17.333-1.667-22.5-4.5"/>
<path fill="none" stroke="#000000" d="M89.346,140.941c0,0,5.108,0.012,7.958-0.125c2.625-0.125,9.375-1.041,9.375-1.041
	s40.926-0.016,45.5-0.167c5-0.167,21.167-1.5,21.167-1.5"/>
<line fill="none" stroke="#000000" x1="108.346" y1="134.608" x2="109.679" y2="139.775"/>
<path fill="none" stroke="#000000" d="M102.179,115.941l3.333,18.834c0,0,40.667-0.668,45.167-0.334"/>
<path fill="none" stroke="#000000" d="M154.804,87.316l5.792-1.458c0,0,3.083-0.167,3.667,3.333s0.083,3.25-0.667,4.167"/>
<line fill="none" stroke="#000000" x1="155.263" y1="96.191" x2="163.179" y2="94.024"/>
<path fill="none" stroke="#000000" d="M173.846,81.024l4.583-1.417c0,0,2.417,0.333,4.083,3.083"/>
<ellipse fill="none" stroke="#000000" cx="155.971" cy="91.358" rx="2.208" ry="3.083"/>
<path fill="none" stroke="#000000" d="M270.014,121.608c0,0,48-9,62.666-11.667c14.667-2.667,47.333-7.333,47.333-7.333"/>
<path fill="none" stroke="#000000" d="M401.346,127.608c0,0,0.334-5.667-1.333-9s-11.333-19-15-20.667s-10.333,0.333-10.333,0.333
	s4.667,2.334,6.667,5.334s6.999,16.666,7.666,19.333s-0.666,3.667-0.666,3.667l-81.667,11.666"/>
<polyline fill="none" stroke="#000000" points="380.013,102.608 381.347,117.274 269.014,138.941 "/>
<line fill="none" stroke="#000000" x1="389.013" y1="124.608" x2="381.347" y2="117.274"/>
<path fill="none" stroke="#000000" d="M374.68,98.274c0,0-87.332,13.668-93.332,15.334"/>
<path fill="none" stroke="#000000" d="M319.18,52.941l21.749-4.25c0,0-12.917-23.417-22.584-28.75c0,0-22.666-0.75-32.166,6.25
	c-9.499,7-31.833,33.917-31.833,33.917"/>
<path fill="none" stroke="#000000" d="M340.929,48.691c0,0,53.25-7,61.25-7.75s31.25-2.25,31.25-2.25"/>
<path fill="none" stroke="#000000" d="M389.013,122.941c0,0,8.416-2.25,10.416-5.5s16.5-5,16.5-5"/>
<path fill="none" stroke="#000000" d="M459.429,78.691c0,0,3.75-0.25,8-7.75"/>
<path fill="none" stroke="#000000" d="M264.846,48.274c0,0,12.5-1.167,15.834-1.833c3.332-0.666,6.332-2,9.332-2.333
	s24.168-1.5,26.334-0.167s3.834,8.667,2.334,10.333s-30.168,5.5-32.668,5.167s-2.334-1-4.5-1s-7.666,0.833-7.666,0.833"/>
<path fill="none" stroke="#000000" d="M251.512,59.608c0,0,18.334,2.833,31.5-0.667"/>
<path fill="none" stroke="#000000" d="M264.012,60.441c0,0,1.168-4.833,1.834-5.5s5.668-1.5,6.5-1
	c0.834,0.5,1.834,6.167,1.834,6.167"/>
<path fill="none" stroke="#000000" d="M265.68,60.774c0,0,0.5-3.333,0.166-5.833"/>
<path fill="none" stroke="#000000" d="M272.346,53.941c0,0-0.5,3.333-0.166,7"/>
<polyline fill="none" stroke="#000000" points="281.512,58.441 279.68,51.774 275.68,49.774 275.512,47.608 "/>
<path fill="none" stroke="#000000" d="M259.846,53.608c0,0,41.334-3.833,47-5s9.5-4.667,9.5-4.667"/>
<path fill="none" stroke="#000000" d="M318.346,54.941c0,0-5.832,0.333-9.5,0.833c-3.666,0.5-26.166,2.5-26.166,2.5l-8.834,1"/>
<path fill="none" stroke="#000000" d="M383.179,31.941c0,0-17.5-4.5-25-6.5"/>
<path fill="none" stroke="#000000" d="M356.012,20.941c0,0,9.418,4.667,11.334,6.833"/>
<path fill="none" stroke="#000000" d="M179.346,20.607c0,0,75.667-1.5,87.333,3.833c0,0-21.666,22.833-29.668,27.667
	c-8,4.833-15.166,4.667-19.166,4.5"/>
<path fill="none" stroke="#000000" d="M176.513,56.607c0,0-56.667-2.333-64.667-6.333"/>
<line fill="none" stroke="#000000" x1="114.846" y1="48.607" x2="129.179" y2="41.607"/>
<path fill="none" stroke="#000000" d="M177.179,83.191c0,0-1.25-0.75-2.5-0.625s-2.875,1.875-2.875,3.75s0.375,2.375,0.375,2.375"/>
<path fill="none" stroke="#000000" d="M39.013,111.941c0,0,4.5,24.334,3.333,25.334s-26.5-1.001-27.167-6.334"/>
<polyline fill="none" stroke="#000000" points="20.679,128.608 25.846,128.108 25.679,125.608 "/>
<path fill="none" stroke="#000000" d="M42.513,133.608c0,0-13.833-3.333-16.667-5.5"/>
<path fill="none" stroke="#000000" d="M41.846,129.775c0,0-17.167-4.333-19.167-6s-4.667-16-4.667-16s-2.5-0.334-3.333-2.834"/>
<path fill="none" stroke="#000000" d="M85.179,140.566c0,0,1.25-17.25,4.75-24.75"/>
<path fill="none" stroke="#000000" d="M79.679,88.566c0,0,4.375-0.25,4.25,0.5s-5.625,3.625-7,3.125S77.929,89.816,79.679,88.566z"
	/>
<path fill="none" stroke="#000000" d="M205.179,95.441c0,0-0.667-0.5-0.667-1.5s9.833-7.833,10.667-7.5s-3.168,7.833-3.168,7.833"/>
<path fill="none" stroke="#000000" d="M275.678,100.275c0,0-6.164-18.5-10.832-22.167c-4.666-3.667-11.832-8.5-20.166-8.5
	c-8.332,0-18.332,4.5-23.832,12s-7.168,12.5-7.168,12.5"/>
<path fill="none" stroke="#000000" d="M33.012,92.608c0,0-4.833-0.917-6.833-1.667"/>
<line fill="none" stroke="#000000" x1="146.429" y1="97.191" x2="152.179" y2="94.191"/>
<path fill="none" stroke="#000000" d="M156.679,86.441c0,0,6.75-8.25,6.25-10.25"/>
<path fill="none" stroke="#000000" d="M266.43,79.441c0,0,7.5-3.75,14.5-5.75s85.249-12.5,85.249-12.5s29.75-4,38.25-3.75
	s25.75,4.5,25.75,4.5"/>
<path fill="none" stroke="#000000" d="M414.179,118.441c0,0-1-23,0.25-28.75s8.75-27.75,24.25-32.75s21.25,10,22,12.75
	s2.5,19.25,1.75,26.5"/>
<path fill="none" stroke="#000000" d="M462.846,50.108c0,0,1.833,5.833-9.667,8.333"/>
<path fill="none" stroke="#000000" d="M241.846,84.774c9.512,0.498,20.141,7.168,21.668,31.333c1,15.833-8.609,33.961-20.168,33.833
	c-15-0.166-22.666-19.666-22.166-34.833S230.693,84.19,241.846,84.774z"/>
<path fill="none" stroke="#000000" stroke-width="2" d="M233.014,77.441c0,0,15.666-2.833,23.166,6s10.668,18.834,10.668,28.167
	s0.832,40.334-22.668,44.167s-28.332-22.5-29-34c-0.666-11.5,0.5-39.167,26.168-43.5c0,0,5.041-0.208,6.666,0.167"/>
<path fill="none" stroke="#000000" stroke-width="2" d="M240.846,156.441l-37.542-2.375c0,0-7.375-1.5-8.625-5.5"/>
<path fill="none" stroke="#000000" stroke-width="2" d="M431.304,66.191c0,0,13.375-0.875,19.5,10.125s6.5,18,5.75,27.75
	s-4.375,33.125-17.5,33.625s-19-21-18.375-35.625s4.375-25.125,12.125-31s9.5-2.25,9.5-2.25"/>
<path fill="none" stroke="#000000" stroke-width="2" d="M437.929,138.191l-29.375-1.75c0,0-4.875-1.875-5.625-8.25"/>
<path fill="none" stroke="#000000" d="M439.346,75.108c6.853,0.143,14.166,9.167,15,23.167s-5.166,31.834-13.666,32.5
	s-16.834-13.501-15.334-29.834S431.346,74.941,439.346,75.108z"/>
<path fill="none" stroke="#000000" d="M433.18,78.108c0,0,2.999-0.5,5.666,0.5s11,7.999,10.167,24.333s-7.5,28-16,24"/>
<path fill="none" stroke="#000000" d="M440.013,95.441c-4.5-6-2.167-12.833-2.167-12.833s4.5,3.617,4.5,8.167
	C442.346,94.608,440.013,95.441,440.013,95.441z"/>
<path fill="none" stroke="#000000" d="M444.346,99.941c0,0,0.667,11.501-1.833,14.334c0,0-1.833-3.333-1-8
	S443.179,100.774,444.346,99.941z"/>
<path fill="none" stroke="#000000" d="M435.346,112.441c1.91-1.4,4.834,6,2.5,9.167s-6.166,2.333-6.166,2.333
	S430.346,116.107,435.346,112.441z"/>
<path fill="none" stroke="#000000" d="M426.346,93.941l1.667,1.5c0,0,2.501-0.667,3.667-4.5s-2.334-7.667-2.334-7.667"/>
<path fill="none" stroke="#000000" d="M447.18,101.941c0,0-0.833-2.833-2.5-2.833s-3.334,3.332-3.834,7.166
	s-0.166,8.668,1.834,9.334s2.333-0.334,2.333-0.334"/>
<path fill="none" stroke="#000000" d="M430.846,124.441c0,0-0.166-2-0.166-4.167s2.333-9.166,5.333-8.833s3.833,2.333,4,5.667
	s-1.167,6.5-1.167,6.5"/>
<path fill="none" stroke="#000000" d="M425.346,100.941c0,0,6.666-0.001,7,6.833s-5.166,9.334-5.166,9.334"/>
<path fill="none" stroke="#000000" d="M444.18,88.441c0,0,0.666,3.5-0.167,6s-4,1-4,1s-4.334-3.167-3.667-9.5s2.334-5,2.334-5"/>
<path fill="none" stroke="#000000" d="M425.846,95.107c0,0,2,3.167,4.834,2.833s4-1.667,4.333-7.167s-4.833-9.5-4.833-9.5"/>
<path fill="none" stroke="#000000" d="M426.346,113.941c0,0,2.334-0.833,2.167-3.333s-3.167-4.167-3.167-4.167"/>
<path fill="none" stroke="#000000" d="M222.848,119.274c0,0,3.332-4.666,6.332-4.666s6.5,1.999,7.668,7.166
	c1.166,5.167-4,11.167-6.668,11.667c-2.666,0.5-3.666-0.833-3.666-0.833"/>
<path fill="none" stroke="#000000" d="M226.348,116.441c0,0,6.332,0.499,7,5.833c0.666,5.334-1.168,9.334-4.334,11.167"/>
<path fill="none" stroke="#000000" d="M226.014,101.274c0,0,1.832,8.166,5.832,9s8.5,1.001,9.168-4.666
	c0.666-5.667-0.668-8.667-2.334-11.333c-1.666-2.667-3.5-3.167-3.5-3.167"/>
<path fill="none" stroke="#000000" d="M246.18,91.274c0,0-3.332,4.666-2.334,9c1,4.334,2.834,9.334,6,9.834
	c3.168,0.5,5.334-2.833,4.834-9.667"/>
<path fill="none" stroke="#000000" d="M235.18,142.774c0,0,0-4.667,0.834-7.5c0.832-2.833,2.666-6.5,6.332-7.5
	s5.834,1.501,6.168,5.334s-0.669,6.667-2.169,9"/>
<path fill="none" stroke="#000000" d="M254.846,131.774c0,0-4.666,0.667-5-4.333c-0.332-5-0.332-9.5,2.334-12.5
	s6.334,1.333,6.334,1.333"/>
<path fill="none" stroke="#000000" d="M245.346,93.274c0,0,7,6.833,7.5,8.833s-0.498,6.334-4.666,7.5"/>
<path fill="none" stroke="#000000" d="M233.848,93.441c0,0,6.666,4.834,4.5,10.167c-2.168,5.333-5.5,6.833-5.5,6.833"/>
<path fill="none" stroke="#000000" d="M252.014,131.108c0,0,5.666-6.5,3.332-17.167"/>
<path fill="none" stroke="#000000" d="M240.014,128.941c0,0,5.498-2.001,5.832,4.833s-0.832,6.667-0.832,6.667
	s-3.166,3.166-9.832,0.833"/>
<path fill="none" stroke="#000000" d="M222.848,113.108c1.166-9.667,6.666-23,19.332-23.167s16,13.833,16.168,23.833
	c0.166,10-3.834,25.666-14.666,28.5c-10.834,2.834-17.334-3.834-19.668-14S222.848,113.108,222.848,113.108z"/>
<path fill="none" stroke="#000000" d="M429.679,81.774c12.667-3.5,17.167,8.667,17.167,15.167c0,0,2.83,22.537-9.5,27.333
	c-3,1.167-6.334,1-6.334,1"/>
<polyline fill="none" stroke="#000000" points="153.43,76.191 197.18,73.691 151.93,100.441 "/>
<line fill="none" stroke="#000000" x1="157.68" y1="97.191" x2="133.93" y2="97.441"/>
</svg>
