<?xml version="1.0" encoding="utf-8"?>
<!-- Generator: Adobe Illustrator 13.0.0, SVG Export Plug-In . SVG Version: 6.00 Build 14948)  -->
<!DOCTYPE svg PUBLIC "-//W3C//DTD SVG 1.1//EN" "http://www.w3.org/Graphics/SVG/1.1/DTD/svg11.dtd">
<svg version="1.1" id="elise" xmlns="http://www.w3.org/2000/svg" xmlns:xlink="http://www.w3.org/1999/xlink" x="0px" y="0px"
	 width="412.359px" height="202.882px" viewBox="0 0 412.359 202.882" enable-background="new 0 0 412.359 202.882"
	 xml:space="preserve">
<path fill="none" stroke="#000000" stroke-width="2" d="M212.031,6.733c0,0-1.089-2.903-11.613-5.443
	c-10.525-2.54-88.913,12.338-104.88,17.056c-15.968,4.718-33.751,23.228-33.751,23.228S13.52,52.822,8.801,63.71
	c-4.718,10.887-8.709,38.832-7.621,35.202c1.147-3.825,3.266-12.702,12.702-7.257c14.586,8.414,20.286,33.789,22.5,42.823
	c2.358,9.618,1.814,26.492,14.879,24.678c13.064-1.813,78.388,5.08,78.388,5.08s-2.624-19.099-1.814-34.476
	c0.727-13.79,5.444-25.404,11.976-26.129c7.086-0.787,11.25-0.363,25.041,15.605c13.791,15.968,14.516,29.758,22.5,44.638
	c7.983,14.88,18.508,15.243,18.508,15.243s62.421,1.451,72.22-6.17c9.798-7.622,10.161-6.532,10.161-6.532l23.59-1.452
	c0,0,31.935-7.621,43.911-11.25c11.977-3.629,8.348,2.177,18.871-0.727c10.524-2.903,11.251-4.717,18.509-11.976
	c7.257-7.258,13.791-19.234,13.791-26.855s1.089-25.766-10.161-46.815c-11.25-21.049-22.193-26.705-36.291-25.403
	c-23.589,2.177-38.468,7.623-46.452,5.081c-7.985-2.541-9.074-6.169-9.074-6.169s-1.087-4.718,5.807-5.444
	c6.896-0.727,9.799-1.452,9.799-1.452s7.621-4.718,3.267-11.613c-4.355-6.895-13.428-2.179-18.509,2.54
	c-5.081,4.719-13.065,4.719-13.065,4.719L270.097,12.54c0,0-13.064-9.436-35.564-8.347C212.031,5.281,212.031,6.733,212.031,6.733z"
	/>
<path fill="none" stroke="#000000" d="M231.991,106.17c0,0,11.704-0.817,20.005,2.858c6.093,2.697,14.018,8.029,13.383,12.384
	c-0.733,5.028-19.667-3.602-22.138-4.99C236.618,112.703,231.991,106.17,231.991,106.17z"/>
<path fill="none" stroke="#000000" d="M365.225,80.176c3.188-1.806,6.805,1.77,8.302,5.172c1.496,3.402,1.996,13.655-0.409,14.834
	c-4.599,2.256-10.07-7.349-11.159-9.663C360.87,88.206,361.143,82.49,365.225,80.176z"/>
<path fill="none" stroke="#000000" d="M271.866,141.69c0,0-8.438-11.295,5.988-13.201c14.425-1.905,86.01-17.148,90.092-18.645
	c4.083-1.497,7.076-0.544,6.396,4.491c-0.68,5.035-0.271,17.284-17.555,25.041c-17.284,7.757-53.756,14.018-64.916,12.928
	C280.712,151.216,271.866,141.69,271.866,141.69z"/>
<path fill="none" stroke="#000000" d="M266.286,129.986c0,0-25.177,4.355-28.579,4.763c-3.403,0.408-13.336,6.805-5.988,12.521
	c7.349,5.716,20.141,12.249,48.72,12.112"/>
<path fill="none" stroke="#000000" d="M371.621,141.009c0,0,21.887-10.699,24.224-29.396c1.361-10.887-4.808-7.53-7.894-6.805
	c-3.204,0.753-4.763,1.361-8.573,1.361"/>
<path fill="none" stroke="#000000" d="M177.918,88.75c4.088-3.894,22.136,2.176,29.032,5.806c6.896,3.63,29.396,17.783,26.13,24.316
	c-3.267,6.532-27.943-2.542-33.025-5.082C194.975,111.251,170.297,96.009,177.918,88.75z"/>
<path fill="none" stroke="#000000" d="M374.252,65.161c0-10.169,1.815-14.879,7.983-14.879c5.455,0,12.703,15.967,12.703,15.967
	s1.095,22.961-8.347,23.589C381.147,90.202,374.252,72.418,374.252,65.161z"/>
<path fill="none" stroke="#000000" d="M306.389,87.662c0,0-22.865-18.872-39.558-25.767"/>
<path fill="none" stroke="#000000" d="M293.687,88.388c0,0-29.396-24.316-48.993-21.413"/>
<path fill="none" stroke="#000000" d="M185.176,83.851c0,0,74.759,7.802,93.631-1.271"/>
<path fill="none" stroke="#000000" d="M313.646,47.741c14.877,22.5-23.045,27.945-23.045,27.945"/>
<path fill="none" stroke="#000000" d="M297.497,80.585c0,0,48.267-6.713,21.774-32.117"/>
<path fill="none" stroke="#000000" d="M210.398,85.484c0,0,56.432,2.904,57.521-9.798"/>
<path fill="none" stroke="#000000" d="M316.187,61.895c0,0,6.532-3.267,9.798-3.267"/>
<path fill="none" stroke="#000000" d="M125.296,148.268c0,0-86.039-14.878-89.276-55.889c-1.088-13.79,15.969-5.806,30.123-2.541
	c0,0,31.285,6.433,54.436,0c6.533-1.814,9.8,3.265,13.791,11.25"/>
<path fill="none" stroke="#000000" d="M62.513,88.75c0,0-20.848-5.792-2.177,22.501c5.987,9.072,8.708,12.883,20.686,23.588"/>
<path fill="none" stroke="#000000" d="M132.917,77.863c0,0-8.71-26.855-2.54-42.46c6.169-15.605,100.525-27.582,110.324-27.945
	c9.799-0.362,21.775,1.453,33.025,11.251c11.25,9.799,27.943,31.21,27.943,31.21S222.192,74.234,132.917,77.863z"/>
<path fill="none" stroke="#000000" d="M74.852,80.403c0,0-45.364-22.137-61.695-22.137"/>
<path fill="none" stroke="#000000" d="M118.763,62.44c-8.709-0.362-13.79,4.173-22.5,0.543c-8.71-3.63-10.888,0-19.597,1.815
	c-8.71,1.815-7.441,15.968,0.181,15.968c7.621,0,17.964-5.807,20.505-4.719c2.541,1.089,15.242,0,17.782,3.993
	c2.54,3.992,5.082,3.992,5.082,3.992s0,0,3.629-3.266c3.628-3.266,9.072-2.904,9.072-2.904"/>
<path fill="none" stroke="#000000" d="M213.665,6.733c0,0-72.339,12.774-84.739,20.323c-8.347,5.081-11.613,13.064-10.887,33.388
	c0,0,1.089,10.889,4.899,21.05"/>
<path fill="none" stroke="#000000" d="M309.291,44.112c0,0,1.088,2.177-7.621,5.807"/>
<path fill="none" stroke="#000000" d="M63.238,60.806c0,0,1.813,2.541,5.443-7.983s1.089-10.161,1.089-10.161
	s-4.22,1.075-6.532,8.346C60.698,58.992,63.238,60.806,63.238,60.806z"/>
<path fill="none" stroke="#000000" d="M74.489,65.524l7.983-30.122c0,0,4.718-15.605,21.048-19.96"/>
<path fill="none" stroke="#000000" d="M90.82,61.169l0.725-19.234c0,0,1.09-11.612,19.96-16.693
	c18.872-5.082,58.066-9.618,58.066-9.618"/>
<path fill="none" stroke="#000000" d="M291.326,38.125c0,0-16.148,4.9-31.391,1.271c-15.242-3.63-24.315-9.437-24.315-9.437
	L218.2,10.18"/>
<path fill="none" stroke="#000000" d="M168.482,85.484c-1.815,12.339,12.702,21.775,22.863,26.856
	c33.982,16.993,39.194,11.976,43.549,9.072c4.355-2.903-10.888-18.508-17.419-22.863C210.942,94.194,170.252,73.447,168.482,85.484z
	"/>
<path fill="none" stroke="#000000" d="M300.399,49.919c0,0-35.02,4.718-45.908,3.629c-10.887-1.088-26.855-10.525-26.855-10.525
	l-11.613-21.774c0,0-4.717-8.347-14.153-8.347"/>
<path fill="none" stroke="#000000" d="M70.859,70.604l-22.863-9.799c0,0-10.16-1.813-3.991-3.991
	c6.168-2.178,5.443-9.074,11.976-13.792"/>
<path fill="none" stroke="#000000" d="M377.156,45.201c0,0-13.065,5.081-7.26,19.235c5.808,14.153,11.614,23.588,11.614,23.588
	s6.169,10.161,12.701-1.089c6.532-11.25,2.541-19.597,2.541-19.597"/>
<path fill="none" stroke="#000000" d="M367.946,109.844c0,0,4.854,22.093-23.816,30.077c-28.669,7.983-45.362,9.072-45.362,9.072
	s-14.154,2.178-24.678-5.08"/>
<path fill="none" stroke="#000000" d="M179.46,144.275c0,0-3.811-14.153,3.811-19.325s20.509,1.373,27.491,4.083
	c15.424,5.988,27.218,5.171,34.022,4.899"/>
<path fill="none" stroke="#000000" stroke-width="2" d="M215.66,179.115c0,0-1.813,10.524-7.257,13.064
	c-5.443,2.54-35.203,8.71-35.203,8.71s-22.512,7.099-35.202-16.694c-5.806-10.887-6.078-14.29-8.527-20.503"/>
<path fill="none" stroke="#000000" d="M152.877,107.622c0,0-21.594-1.18-24.86,32.299"/>
<path fill="none" stroke="#000000" d="M160.951,192.18c-5.896,0.182-24.86-6.252-28.034-39.738
	c-1.996-21.049,7.983-31.574,15.786-33.025c8.568-1.593,25.585,9.889,29.94,34.113C182.998,177.754,171.31,191.861,160.951,192.18z"
	/>
<path fill="none" stroke="#000000" stroke-width="2" d="M61.061,159.155c0,0,0.908,12.52-3.266,13.79s-27.218,5.989-27.218,5.989
	s-18.871,3.447-25.041-36.836c-6.17-40.283,3.266-51.17,7.076-51.17"/>
<path fill="none" stroke="#000000" d="M13.883,103.085c3.599-0.589,17.057,12.703,17.964,33.389
	c0.907,20.686-0.279,32.423-8.892,34.112c-9.254,1.815-13.939-23.956-15.242-33.115C6.479,128.795,3.902,104.719,13.883,103.085z"/>
<path fill="none" stroke="#000000" stroke-width="2" d="M405.825,92.561c0,0,5.534,10.615,5.534,25.313
	c0,14.698-6.805,30.213-19.869,32.935c-13.065,2.722-15.786,2.45-15.786,2.45"/>
<path fill="none" stroke="#000000" d="M159.228,201.253c0,0,29.939,3.447,27.036-39.558"/>
<path fill="none" stroke="#000000" stroke-width="2" d="M41.327,153.666c0,0-0.68,24.225-11.568,25.449"/>
<path fill="none" stroke="#000000" d="M102.796,64.254c0,0,1.088,6.533,0.906,9.074c-0.182,2.54,5.262-1.453,7.621,4.173"/>
<path fill="none" stroke="#000000" d="M308.203,23.154c0,0,3.266,7.621,1.632,12.249"/>
<path fill="none" stroke="#000000" d="M306.841,43.568c0,0-13.88-12.793-15.515-13.881"/>
<path fill="none" stroke="#000000" d="M263.384,80.222c0,0-5.99-10.887-17.784-13.609"/>
<path fill="none" stroke="#000000" d="M278.024,82.831c0,0-4.911-5.977-10.616-7.179"/>
<line fill="none" stroke="#000000" x1="69.226" y1="123.409" x2="57.794" y2="123.227"/>
<line fill="none" stroke="#000000" x1="65.597" y1="118.51" x2="51.08" y2="118.873"/>
<line fill="none" stroke="#000000" x1="63.056" y1="115.062" x2="48.358" y2="115.788"/>
<line fill="none" stroke="#000000" x1="60.517" y1="110.707" x2="44.729" y2="111.433"/>
<line fill="none" stroke="#000000" x1="58.339" y1="107.259" x2="42.008" y2="107.985"/>
<line fill="none" stroke="#000000" x1="55.617" y1="103.812" x2="39.648" y2="104.175"/>
<line fill="none" stroke="#000000" x1="54.166" y1="100.546" x2="38.197" y2="100.908"/>
<path fill="none" stroke="#000000" d="M246.417,133.389c0,0-1.089,11.976,4.9,21.502l-5.172,0.272"/>
<path fill="none" stroke="#000000" d="M381.691,106.17c2.45,8.709,0,21.774,0,21.774s12.793-9.526,9.254-23.408"/>
<line fill="none" stroke="#000000" x1="242.879" y1="154.074" x2="256.215" y2="151.625"/>
<line fill="none" stroke="#000000" x1="232.718" y1="148.086" x2="252.132" y2="145.637"/>
<line fill="none" stroke="#000000" x1="228.725" y1="141.554" x2="249.683" y2="139.104"/>
<line fill="none" stroke="#000000" x1="362.821" y1="130.667" x2="281.529" y2="148.358"/>
<line fill="none" stroke="#000000" x1="272.002" y1="142.643" x2="368.627" y2="123.045"/>
<line fill="none" stroke="#000000" x1="371.621" y1="115.152" x2="269.553" y2="135.293"/>
<line fill="none" stroke="#000000" x1="382.235" y1="117.602" x2="391.763" y2="115.697"/>
<line fill="none" stroke="#000000" x1="381.419" y1="110.797" x2="392.579" y2="108.075"/>
<line fill="none" stroke="#000000" x1="381.691" y1="124.406" x2="388.044" y2="122.683"/>
<circle fill="none" stroke="#000000" cx="216.08" cy="111.897" r="3.981"/>
<path fill="none" stroke="#000000" d="M191.89,99.093c2.639-3.653,9.437-1.271,13.065,0.545
	c3.629,1.814,23.226,15.242,23.226,15.242s4.173,3.81-1.815,3.629c-5.988-0.181-25.979-6.169-32.48-11.432
	C190.075,103.993,189.531,102.36,191.89,99.093z"/>
<path fill="none" stroke="#000000" d="M376.974,76.264c2.232-1.595,5.265-1.437,6.701,0.638c1.436,2.075,2.591,7.937-2.553,9.731"/>
<path fill="none" stroke="#000000" d="M375.522,72.419c0,0,2.195-13.312,9.073-12.702c5.125,0.454,7.637,10.81,5.805,19.507
	c-1.088,5.171-3.265,7.621-5.261,9.889"/>
<path fill="none" stroke="#000000" d="M390.129,103.993c0,0,11.977-8.438,12.249-23.408"/>
<path fill="none" stroke="#000000" d="M264.291,117.421c0,0,62.42-5.081,101.252-20.323"/>
<path fill="none" stroke="#000000" d="M237.797,112.703c0,0-3.266-1.814-7.984-2.54"/>
<path fill="none" stroke="#000000" d="M375.159,93.832c0,0,5.263-1.815,7.803-3.993"/>
<path fill="none" stroke="#000000" d="M160.951,146.044c0,0-2.631-17.555-1.36-19.188c1.271-1.633,10.887,12.158,10.887,12.158
	L160.951,146.044z"/>
<path fill="none" stroke="#000000" d="M165.396,153.167c0,0,0.726,3.809,0.544,5.262c-0.181,1.453,10.769,8.968,10.888,8.166
	c1.452-9.799-3.811-20.867-3.811-20.867L165.396,153.167z"/>
<path fill="none" stroke="#000000" d="M163.537,165.778c0,0,10.025,6.261,11.296,6.987c1.271,0.726-5.987,11.613-7.439,12.158
	C165.941,185.466,163.718,171.584,163.537,165.778z"/>
<path fill="none" stroke="#000000" d="M157.141,166.731c0,0,4.627,18.555,5.716,20.369c1.088,1.813-11.795-3.085-12.702-5.625
	C149.248,178.935,152.242,170.542,157.141,166.731z"/>
<path fill="none" stroke="#000000" d="M139.086,158.973c-0.798,2.392,6.713,18.328,6.532,17.058s5.625-13.792,5.625-13.792
	l-1.269-2.902C149.974,159.337,139.269,158.429,139.086,158.973z"/>
<path fill="none" stroke="#000000" d="M148.839,152.033l0.409-3.402c0,0-7.077-8.71-9.526-14.154
	c-0.447-0.993-3.313,16.206-1.906,17.964C138.36,153.122,148.839,152.033,148.839,152.033z"/>
<path fill="none" stroke="#000000" d="M142.443,129.441c0,0,5.58-4.763,10.342-4.763c0.982,0,0.409,19.461,0.409,19.461
	S142.443,133.116,142.443,129.441z"/>
<ellipse fill="none" stroke="#000000" cx="156.461" cy="155.843" rx="1.497" ry="1.905"/>
<path fill="none" stroke="#000000" d="M157.051,125.405c0,0-0.727,12.521-0.182,19.597"/>
<line fill="none" stroke="#000000" x1="172.475" y1="141.736" x2="163.401" y2="149.539"/>
<line fill="none" stroke="#000000" x1="165.035" y1="162.421" x2="176.285" y2="170.224"/>
<path fill="none" stroke="#000000" d="M160.317,166.595c0,0,1.997,15.425,4.899,19.961"/>
<path fill="none" stroke="#000000" d="M153.24,164.961c0,0-4.9,8.711-5.626,13.428"/>
<line fill="none" stroke="#000000" x1="149.067" y1="155.707" x2="137.816" y2="155.527"/>
<path fill="none" stroke="#000000" d="M151.425,145.909c0,0-10.16-11.069-11.068-14.698"/>
<path fill="none" stroke="#000000" d="M18.6,109.98c0,0,5.988,7.44,6.714,10.525l-4.355,8.166L18.6,109.98z"/>
<path fill="none" stroke="#000000" d="M27.31,126.856c0,0,2.359,12.521,2.359,17.057l-6.714-7.621L27.31,126.856z"/>
<path fill="none" stroke="#000000" d="M23.681,144.82l5.806,5.082c0,0-0.362,9.254-1.813,12.338L23.681,144.82z"/>
<path fill="none" stroke="#000000" d="M15.924,135.521l-6.215-14.29c0,0-0.646,12.04,0.317,14.925L15.924,135.521z"/>
<path fill="none" stroke="#000000" d="M10.798,117.421c0,0,0.544-5.625,4.173-8.709l2.904,19.233L10.798,117.421z"/>
<path fill="none" stroke="#000000" d="M10.889,140.965l6.032-0.908l-1.768,15.288C15.153,155.345,12.522,147.861,10.889,140.965z"/>
<path fill="none" stroke="#000000" d="M16.604,159.337l3.811-12.884l4.717,18.69C25.132,165.143,20.052,164.6,16.604,159.337z"/>
<path fill="none" stroke="#000000" d="M20.097,135.021c0.612,0.272,1.021,1.157,1.021,2.042c0,0.925,0.068,1.429-0.476,1.633
	c-0.956,0.358-1.567-0.914-1.633-1.837C18.94,135.906,19.148,134.599,20.097,135.021z"/>
</svg>
